<svg width="80" height="80" viewBox="0 0 80 80" fill="none" xmlns="http://www.w3.org/2000/svg">
<g clip-path="url(#clip0)">
<g clip-path="url(#clip1)">
<path d="M66.6012 25.8925V10.0624H46.8899V25.8925C38.406 29.6699 32.4911 38.174 32.4911 48.0598C32.4911 61.4552 43.3499 72.314 56.7452 72.314C70.1406 72.314 81 61.4552 81 48.0598C81 38.174 75.0845 29.6699 66.6012 25.8925Z" fill="#C9FFF7"/>
<path d="M76.0916 48.0604C76.0916 58.7281 67.4136 67.4055 56.7446 67.4055C53.2351 67.4055 49.9417 66.4668 47.1017 64.8256C41.3064 61.4814 37.3995 55.2186 37.3995 48.0604C37.3995 42.7089 39.6163 37.7009 43.3431 34.1127H70.1473C73.8748 37.7009 76.0916 42.7089 76.0916 48.0604Z" fill="#F7D360"/>
<path d="M51.321 25.8931V21.512C51.321 19.1383 53.2449 17.2145 55.6179 17.2145H66.6012V12.5166L62.6925 8.95947L59.0115 7.97803L46.8905 12.516V25.8931C38.4054 29.6705 32.4911 38.1733 32.4911 48.0604C32.4911 61.3978 43.2565 72.2206 56.5743 72.3121C49.2806 72.1437 43.3975 61.3502 43.3975 48.0604C43.3975 38.1733 46.6531 29.6705 51.321 25.8931Z" fill="#72CEC0"/>
<path d="M47.1017 64.8256C41.3064 61.4814 37.3995 55.2186 37.3995 48.0604C37.3995 42.7089 39.6163 37.7009 43.3431 34.1127H45.8254C44.2953 38.0574 43.3975 42.8676 43.3975 48.0604C43.3975 54.5637 44.8062 60.4689 47.1017 64.8256Z" fill="#E58E13"/>
<path d="M48.4255 61.7671L32.6742 34.485V20.3694H17.7047V34.485L1.95336 61.7671C-0.752936 66.4546 2.62963 72.314 8.04284 72.314H42.3367C47.7493 72.314 51.1324 66.4546 48.4255 61.7671Z" fill="#E6E6E6"/>
<path d="M32.6742 20.3694L28.0911 17.7943L19.3075 17.8859L17.7041 20.3694V34.4844L1.95336 61.7677C-0.754766 66.4552 2.62902 72.314 8.04101 72.314H17.4032C14.9453 72.314 13.4091 66.4552 14.6377 61.7677L21.791 34.4844V27.2377C21.791 25.7484 22.9983 24.5417 24.4875 24.5417H32.6742V20.3694Z" fill="#CCCCCC"/>
<path d="M38.1014 17.1791C38.1014 18.9412 36.6732 20.3694 34.9111 20.3694H15.4672C14.587 20.3694 13.7887 20.0129 13.2113 19.4349C12.6339 18.8575 12.2769 18.0592 12.2769 17.1791C12.2769 15.417 13.7051 13.9888 15.4672 13.9888H34.9111C35.7913 13.9888 36.5896 14.3452 37.167 14.9226C37.7444 15.5006 38.1014 16.299 38.1014 17.1791Z" fill="#CCCCCC"/>
<path d="M38.1014 17.1791C38.1014 18.9412 36.6732 20.3694 34.9111 20.3694H23.2046C22.3226 20.3694 21.5261 20.0129 20.9481 19.4349C20.3707 18.8575 20.0143 18.0592 20.0143 17.1791C20.0143 15.417 21.4425 13.9888 23.2046 13.9888H34.9111C35.7913 13.9888 36.5896 14.3452 37.167 14.9226C37.7444 15.5006 38.1014 16.299 38.1014 17.1791Z" fill="#E6E6E6"/>
<path d="M72.0962 9.32568C72.0962 11.0878 70.668 12.516 68.9059 12.516H44.8538C43.9718 12.516 43.1747 12.1595 42.5973 11.5822C42.0199 11.0042 41.6628 10.2058 41.6628 9.32568C41.6628 7.5636 43.0917 6.13538 44.8538 6.13538H68.9059C69.786 6.13538 70.5844 6.49182 71.1617 7.06982C71.7397 7.64722 72.0962 8.44556 72.0962 9.32568Z" fill="#72CEC0"/>
<path d="M72.0962 9.32568C72.0962 11.0878 70.6679 12.516 68.9059 12.516H52.3092C51.429 12.516 50.6307 12.1595 50.0527 11.5822C49.4753 11.0042 49.1189 10.2058 49.1189 9.32568C49.1189 7.5636 50.5471 6.13538 52.3092 6.13538H68.9059C69.786 6.13538 70.5843 6.49182 71.1617 7.06982C71.7397 7.64722 72.0962 8.44556 72.0962 9.32568Z" fill="#C9FFF7"/>
<path d="M44.1744 66.3441C43.9455 66.7415 43.4023 67.4055 42.3373 67.4055H8.04284C6.97595 67.4055 6.43273 66.7415 6.20385 66.3441C5.97497 65.948 5.6704 65.1448 6.20385 64.2219L17.7792 44.1731H32.6009L44.1744 64.2219C44.7079 65.1448 44.4033 65.948 44.1744 66.3441Z" fill="#FC5F61"/>
<path d="M14.6377 61.7677C14.1555 63.6085 14.0994 65.6288 14.3581 67.4055H8.04284C6.97595 67.4055 6.43273 66.7415 6.20385 66.3441C5.97497 65.948 5.6704 65.1448 6.20385 64.2219L17.7792 44.1731H19.2501L14.6377 61.7677Z" fill="#E83842"/>
<path d="M27.828 58.1612C26.7135 58.1612 26.1831 56.7287 27.0321 56.0017C27.8762 55.2791 29.2013 56.0164 29.042 57.115C28.9559 57.7095 28.4274 58.1612 27.828 58.1612Z" fill="#E83842"/>
<path d="M22.416 7.85476C21.3448 7.85476 20.7943 6.51565 21.5487 5.75881C21.9564 5.35049 22.6174 5.28701 23.0966 5.60684C23.5165 5.88638 23.7258 6.4125 23.6105 6.90383C23.4823 7.45254 22.9806 7.85476 22.416 7.85476Z" fill="#E83842"/>
<path d="M27.2994 3.19165C26.1892 3.19165 25.6466 1.75366 26.5023 1.031C26.9094 0.686766 27.5033 0.64282 27.9555 0.927855C28.3901 1.2019 28.6117 1.74023 28.4945 2.24133C28.3663 2.78882 27.8646 3.19165 27.2994 3.19165Z" fill="#E83842"/>
<path d="M67.5197 41.7207C66.429 41.7207 65.8852 40.3279 66.6897 39.5894C67.4605 38.882 68.7471 39.4466 68.7471 40.4933C68.7471 41.1604 68.1881 41.7207 67.5197 41.7207Z" fill="white"/>
<path d="M68.3743 49.9043C67.3055 49.9043 66.7452 48.5646 67.5069 47.8102C67.8878 47.433 68.4798 47.3457 68.9529 47.5965C69.4064 47.8376 69.6615 48.3509 69.5882 48.8581C69.5016 49.4532 68.973 49.9043 68.3743 49.9043Z" fill="white"/>
<path d="M52.3696 59.1432C51.8447 59.1432 51.3699 58.7984 51.2051 58.3009C51.0305 57.776 51.2423 57.1803 51.708 56.8825C52.6321 56.291 53.8454 57.1803 53.5519 58.2417C53.4072 58.7666 52.9153 59.1432 52.3696 59.1432Z" fill="white"/>
<path d="M46.7251 48.8355C45.6161 48.8355 45.0777 47.4055 45.9231 46.681C46.329 46.3325 46.9234 46.2892 47.3769 46.5705C47.8072 46.8385 48.0306 47.3652 47.9256 47.8614C47.8072 48.4217 47.2988 48.8355 46.7251 48.8355Z" fill="white"/>
<path d="M61.6939 45.8906C60.5971 45.8906 60.0539 44.4899 60.8706 43.7556C61.2777 43.3894 61.8868 43.3381 62.3507 43.6281C62.7749 43.8942 62.9952 44.413 62.8982 44.9043C62.7859 45.4707 62.2707 45.8906 61.6939 45.8906Z" fill="white"/>
<path d="M19.2403 60.7026C18.7478 60.7026 18.2955 60.3987 18.1063 59.9452C17.8988 59.4459 18.0538 58.8459 18.4798 58.5121C19.3545 57.8279 20.668 58.6165 20.4427 59.7157C20.3268 60.2821 19.8202 60.7026 19.2403 60.7026Z" fill="#E83842"/>
<path d="M22.4307 52.7626C21.9174 52.7626 21.4486 52.4324 21.2753 51.949C21.0909 51.4351 21.2795 50.8406 21.7288 50.5293C22.6022 49.9245 23.8271 50.6917 23.6385 51.7458C23.5348 52.3256 23.0215 52.7626 22.4307 52.7626Z" fill="#E83842"/>
</g>
</g>
<defs>
<clipPath id="clip0">
<rect width="80" height="80" fill="white"/>
</clipPath>
<clipPath id="clip1">
<rect width="80" height="80" fill="white" transform="translate(1 -7)"/>
</clipPath>
</defs>
</svg>
