<svg width="80" height="80" viewBox="0 0 80 80" fill="none" xmlns="http://www.w3.org/2000/svg">
<g clip-path="url(#clip0)">
<g clip-path="url(#clip1)">
<path d="M33.9543 40C33.9543 43.8921 37.1208 47.0588 41.0132 47.0588L42.5818 40L41.0132 32.9412C37.1209 32.9412 33.9543 36.1078 33.9543 40Z" fill="#5F55AF"/>
<path d="M46.0022 35.011C44.7239 33.7329 42.9592 32.9412 41.0132 32.9412V47.0588C41.0555 47.0497 43.762 47.2292 46.0022 44.989C48.7614 42.2298 48.763 37.7719 46.0022 35.011Z" fill="#453D83"/>
<path d="M33.2336 65.7945C27.8631 51.4728 27.9675 28.2485 33.2336 14.2056C34.5162 10.7851 37.4317 4.70588 41.0132 4.70588L42.5818 2.35294L41.0132 0C31.3928 0 26.9118 16.4097 25.5103 26.086C23.6416 38.9879 24.3496 55.5062 28.8273 67.4467C30.9569 73.1256 34.9233 80 41.0132 80L42.5818 77.647L41.0132 75.2941C37.429 75.2941 34.5269 69.2433 33.2336 65.7945Z" fill="#BEE75E"/>
<path d="M56.5159 53.9139C58.3849 41.0102 57.6757 24.4921 53.1989 12.5533C51.0693 6.87435 47.1029 0 41.0132 0V4.70588C45.491 6.49694 47.1023 9.69804 48.7928 14.2056C54.1068 28.3765 54.1164 51.5981 48.7928 65.7945C47.0999 70.3089 45.4875 73.5046 41.0132 75.2941V80C43.8361 80 46.4896 78.4723 48.8135 75.5818C53.2348 70.0822 55.501 60.9209 56.5159 53.9139Z" fill="#5BC980"/>
<path d="M35.5205 24.2072C26.888 28.8488 17.4003 35.5734 11.1507 43.1702C7.29741 47.8538 3.32721 54.7261 6.37208 60C11.7245 69.2709 31.2489 63.0303 41.013 58.5337L39.2091 55.9608L35.5203 55.7928C29.4836 58.2549 13.576 63.0659 10.4474 57.6471C8.65741 54.5467 12.4362 49.0146 14.7846 46.16C21.2706 38.2763 31.7377 31.2193 41.013 26.6749L38.9738 24.0706L35.5205 24.2072Z" fill="#E87956"/>
<path d="M46.5057 55.7928C55.1383 51.1509 64.6259 44.4265 70.8756 36.8298C74.7289 32.146 78.6991 25.2737 75.6541 19.9998C72.6099 14.7266 64.6742 14.728 58.6899 15.7233C52.7355 16.7137 46.5181 18.9311 41.0133 21.4663L42.8565 23.7777L46.506 24.2072C50.61 22.5333 55.1063 21.09 59.4621 20.3655C63.0659 19.7659 69.7884 19.2513 71.579 22.3528C73.3711 25.4568 69.5819 30.9954 67.2417 33.84C60.7241 41.7625 50.2238 48.8124 41.0135 53.3251L42.6014 55.9433L46.5057 55.7928Z" fill="#FF435B"/>
<path d="M14.7848 33.8402C12.4638 31.019 8.65693 25.4546 10.4475 22.353C11.9476 19.7548 17.0262 19.7468 20.0237 20.0306C26.9344 20.6849 34.723 23.5926 41.0132 26.6747L42.5818 24.0704L41.0132 21.4662C35.5074 18.9307 29.2903 16.7136 23.3366 15.7233C17.3539 14.7283 9.41709 14.726 6.37223 19.9999C1.56156 28.3321 13.5412 40.4237 21.2118 46.4687C27.0816 51.0948 34.0464 55.3252 41.013 58.5337L42.5816 55.9294L41.013 53.3252C31.7358 48.7798 21.2684 41.7211 14.7848 33.8402Z" fill="#FFE278"/>
<path d="M75.6539 60C78.6988 54.7264 74.7291 47.8543 70.8754 43.1702C63.5291 34.2406 51.5584 26.323 41.013 21.4664V26.6747C50.2301 31.1908 60.7267 38.241 67.2412 46.1599C69.5622 48.981 73.3692 54.5454 71.5785 57.6469C68.8577 62.3594 56.0064 59.2367 50.0188 57.1286C47.0922 56.0984 44.0654 54.8207 41.013 53.325V58.5333C47.2488 61.4052 54.7678 64.0212 61.5724 64.6535C66.7589 65.1357 73.04 64.5274 75.6539 60Z" fill="#FFC178"/>
</g>
</g>
<defs>
<clipPath id="clip0">
<rect width="80" height="80" fill="white"/>
</clipPath>
<clipPath id="clip1">
<rect width="80" height="80" fill="white" transform="translate(1)"/>
</clipPath>
</defs>
</svg>
