<svg width="80" height="80" viewBox="0 0 80 80" fill="none" xmlns="http://www.w3.org/2000/svg">
<g clip-path="url(#clip0)">
<g clip-path="url(#clip1)">
<path d="M46.4452 32.5521C45.6942 33.3031 20.5733 58.424 19.8223 59.1752C20.656 59.1752 38.6448 61.528 38.6448 61.528C38.6448 61.528 56.5293 59.1752 57.4669 59.1752C57.4669 48.84 53.3017 39.4099 46.4452 32.5521Z" fill="#B5DBFF"/>
<path d="M19.8223 21.5306C19.8223 22.4681 17.4695 40.3529 17.4695 40.3529C17.4695 40.3529 19.8223 58.3422 19.8223 59.1752L46.4452 32.5523C39.6373 25.7432 30.2295 21.5306 19.8223 21.5306Z" fill="#EDF5FF"/>
<path d="M72.2729 3.39734C71.568 4.10208 20.904 54.7663 19.8223 55.8479L18.5316 60.4658C22.3241 56.6734 51.1406 29.4778 51.1406 29.4778C51.1406 29.4778 70.034 8.96341 73.9365 5.06107L72.2729 3.39734Z" fill="#FF884D"/>
<path d="M1 -1.99731V19.1778C1 19.9523 3.35279 21.5306 3.35279 21.5306C3.35279 21.5306 1 23.0914 1 23.8834V28.5889C1 29.3141 3.35279 30.7745 3.35279 30.7745C3.35279 30.7745 1 32.4519 1 33.2945V38.0001C1 38.785 3.35279 40.3529 3.35279 40.3529C3.35279 40.3529 1 41.9236 1 42.7057V47.4113C1 48.201 3.35279 49.764 3.35279 49.764C3.35279 49.764 1 51.3399 1 52.1168V56.8224C1 57.6192 3.35279 59.1752 3.35279 59.1752C3.35279 59.1752 1 60.7597 1 61.528V77.9975C1.35496 77.6426 12.7639 68.5864 12.7639 68.5864C12.7639 68.5864 19.623 59.3746 19.8223 59.1752C19.8223 56.517 19.8223 0.952612 19.8223 -1.99731H1Z" fill="#FFE278"/>
<path d="M1.00266 9.76666H12.7666V14.4722H1.00266V9.76666Z" fill="#FFB454"/>
<path d="M1.00266 19.1778H10.4138V23.8834H1.00266V19.1778Z" fill="#FFB454"/>
<path d="M1.00266 28.5889H12.7666V33.2945H1.00266V28.5889Z" fill="#FFB454"/>
<path d="M1.00266 38.0001H10.4138V42.7057H1.00266V38.0001Z" fill="#FFB454"/>
<path d="M1.00266 47.4113V52.1168H12.7666V47.4113C10.257 47.4113 3.5123 47.4113 1.00266 47.4113Z" fill="#FFB454"/>
<path d="M1.00266 56.8224V61.528H10.4138V56.8224C6.96305 56.8224 4.45341 56.8224 1.00266 56.8224Z" fill="#FFB454"/>
<path d="M73.9365 5.06104C67.4856 11.5119 24.4334 54.564 18.5316 60.4658L23.1496 59.1752C24.0901 58.2347 74.6848 7.64001 75.6 6.72461C75.0183 6.14269 74.5182 5.6428 73.9365 5.06104Z" fill="#FF4D4D"/>
<path d="M19.8223 59.1752C19.3095 59.6881 1.49878 77.4988 0.999985 77.9975H17.4695C18.2862 77.9975 19.8223 75.6448 19.8223 75.6448C19.8223 75.6448 21.4274 77.9975 22.1751 77.9975H26.8807C27.7294 77.9975 29.2334 75.6448 29.2334 75.6448C29.2334 75.6448 30.8842 77.9975 31.5862 77.9975H36.2918C38.7001 77.9975 38.6446 75.6448 38.6446 75.6448C38.6446 75.6448 39.7456 77.9975 40.9974 77.9975H45.703C46.4167 77.9975 48.0558 75.6448 48.0558 75.6448C48.0558 75.6448 49.5673 77.9975 50.4086 77.9975H55.1141C55.8644 77.9975 57.4669 75.6448 57.4669 75.6448C57.4669 75.6448 59.005 77.9975 59.8197 77.9975H64.5253C65.2871 77.9975 66.8781 75.6448 66.8781 75.6448C66.8781 75.6448 68.4257 77.9975 69.2309 77.9975H80.9975C80.9975 75.7204 80.9975 61.4673 80.9975 59.1752C68.4493 59.1752 32.2629 59.1752 19.8223 59.1752Z" fill="#FFB454"/>
<path d="M26.8833 77.9975H31.5889C31.5889 76.5637 31.5889 67.6572 31.5889 66.2336H26.8833V77.9975Z" fill="#FF884D"/>
<path d="M64.528 66.2336H69.2335V77.9975H64.528V66.2336Z" fill="#FF884D"/>
<path d="M55.1168 68.5864H59.8224V77.9975H55.1168V68.5864Z" fill="#FF884D"/>
<path d="M45.7056 66.2336H50.4112V77.9975H45.7056V66.2336Z" fill="#FF884D"/>
<path d="M36.2945 68.5864H41.0001V77.9975H36.2945V68.5864Z" fill="#FF884D"/>
<path d="M17.4722 68.5864V77.9975H22.1778V68.5864C20.9229 68.5864 18.5701 68.5864 17.4722 68.5864Z" fill="#FF884D"/>
<path d="M42.7013 4.13487L45.3546 1.48155L42.0273 -1.84576L34.1571 6.02463L41.9329 14.7684L45.4492 11.6411L43.0625 8.95746C49.8913 10.1348 56.0589 13.4085 60.8397 18.1576L64.5253 16.825L64.1793 14.8183C58.4011 9.0729 50.963 5.28366 42.7013 4.13487Z" fill="#3B6BAB"/>
<path d="M77.6727 33.7996C76.7446 34.7276 75.9471 35.5249 75.0192 36.453C73.9051 28.439 70.2444 20.848 64.1793 14.8181C63.0113 15.986 62.0076 16.9897 60.8397 18.1577C65.729 23.0148 69.0204 29.2686 70.1966 36.0917C69.258 35.257 68.4516 34.5397 67.513 33.7051C66.4193 34.9349 65.4797 35.9915 64.386 37.2214C65.3717 38.098 72.0909 44.0735 73.1296 44.997C74.082 44.0446 80.0411 38.0855 81 37.1268C79.8363 35.9633 78.8364 34.9633 77.6727 33.7996Z" fill="#00467D"/>
</g>
</g>
<defs>
<clipPath id="clip0">
<rect width="80" height="80" fill="white"/>
</clipPath>
<clipPath id="clip1">
<rect width="80" height="80" fill="white" transform="translate(1 -2)"/>
</clipPath>
</defs>
</svg>
