<svg width="64" height="64" viewBox="0 0 64 64" fill="none" xmlns="http://www.w3.org/2000/svg">
<circle cx="32" cy="32" r="32" fill="#FFEACA"/>
<g clip-path="url(#clip0)">
<g clip-path="url(#clip1)">
<path d="M28.2291 32.8888C31.4833 32.8888 34.1214 30.2507 34.1214 26.9965C34.1214 23.7422 31.4833 21.1041 28.2291 21.1041C24.9748 21.1041 22.3368 23.7422 22.3368 26.9965C22.3368 30.2507 24.9748 32.8888 28.2291 32.8888Z" fill="#FD7E40"/>
<path d="M37.1378 39.2978C35.5564 35.8078 32.0594 33.5527 28.229 33.5527C24.3986 33.5527 20.9017 35.8078 19.3202 39.2977C18.2471 41.6656 20.0033 44.3612 22.614 44.3612H33.8441C36.4543 44.3612 38.2112 41.6662 37.1378 39.2978Z" fill="#FD7E40"/>
<path d="M49.9678 19.6388H31.0922C36.5175 21.7573 37.8938 28.855 33.5498 32.8244C35.7624 33.9466 37.5901 35.7471 38.7333 37.9957L39.0985 37.2383L40.9518 41.0819C41.1994 41.5955 41.8163 41.8108 42.3298 41.5634C42.8433 41.3158 43.0588 40.6988 42.8112 40.1854L40.6212 35.6434H49.9679C50.5379 35.6434 51 35.1813 51 34.6112V20.671C51 20.101 50.5379 19.6388 49.9678 19.6388Z" fill="#FD7E40"/>
</g>
</g>
<defs>
<clipPath id="clip0">
<rect width="29.0909" height="29.0909" fill="white" transform="translate(17.4546 17.4546)"/>
</clipPath>
<clipPath id="clip1">
<rect width="32" height="32" fill="white" transform="translate(19 16)"/>
</clipPath>
</defs>
</svg>
