<svg width="64" height="64" viewBox="0 0 64 64" fill="none" xmlns="http://www.w3.org/2000/svg">
<circle cx="32" cy="32" r="32" fill="#D0FFDB"/>
<g clip-path="url(#clip0)">
<path d="M20.6497 38.9787V44.6538C20.6497 45.6994 21.4958 46.5455 22.5414 46.5455H41.4586C42.5042 46.5455 43.3502 45.6994 43.3502 44.6538V38.9787C43.3502 35.8438 40.8121 33.3036 37.6752 33.3036H37.1901C36.9356 33.3036 36.7317 33.5104 36.7073 33.7637C36.4759 36.1599 34.4568 38.0329 31.9999 38.0329C29.5429 38.0329 27.5239 36.1599 27.2927 33.7637C27.2683 33.5104 27.0644 33.3036 26.8099 33.3036H26.3248C23.1916 33.3036 20.6497 35.8438 20.6497 38.9787Z" fill="#2C9D59"/>
<path d="M32 33.0081C35.7574 33.0081 38.8047 29.526 38.8047 25.2313C38.8047 20.9365 35.7574 17.4546 32 17.4546C28.2425 17.4546 25.1953 20.9367 25.1953 25.2315C25.1953 29.5262 28.2425 33.0081 32 33.0081ZM32 25.2315C33.7753 25.2315 35.2563 24.3334 35.7232 23.1127C36.4219 23.9546 36.8605 25.0226 36.8605 26.2037C36.8605 28.8883 34.6827 31.0641 32 31.0641C29.3153 31.0641 27.1395 28.8883 27.1395 26.2037C27.1395 25.0226 30.2247 25.2315 32 25.2315Z" fill="#2C9D59"/>
</g>
<defs>
<clipPath id="clip0">
<rect width="29.0909" height="29.0909" fill="white" transform="translate(17.4546 17.4546)"/>
</clipPath>
</defs>
</svg>
