<svg width="64" height="64" viewBox="0 0 64 64" fill="none" xmlns="http://www.w3.org/2000/svg">
<circle cx="32" cy="32" r="32" fill="#ECF6FF"/>
<g clip-path="url(#clip0)">
<path d="M46.3595 45.2984L46.3224 45.2889L45.5585 42.234C45.5 42.0002 45.3449 41.8022 45.1318 41.6893C44.8094 41.5186 37.4181 37.6707 32.5 40.5273C27.5818 37.6707 20.1907 41.5186 19.8683 41.6893C19.6552 41.8022 19.5001 42.0002 19.4416 42.234L18.6776 45.2889L18.6405 45.2984C18.1858 45.414 17.9109 45.8763 18.0264 46.3311C18.1242 46.7156 18.4698 46.9716 18.8492 46.9716C18.9185 46.9716 18.9889 46.9631 19.0591 46.9452L28.5441 44.5343C29.3075 45.9846 30.8117 46.9148 32.5 46.9148C34.1883 46.9148 35.6925 45.9846 36.4558 44.5343L45.9408 46.9452C46.0111 46.963 46.0814 46.9716 46.1507 46.9716C46.5301 46.9716 46.8759 46.7156 46.9736 46.3311C47.0892 45.8763 46.8143 45.414 46.3595 45.2984Z" fill="#0164FE"/>
<path d="M20.8849 38.7423C20.9146 38.7364 21.9763 38.5337 23.4427 38.4836C24.8637 38.0856 26.5056 37.7763 28.1772 37.7763H28.1783H28.1783C28.7439 37.7763 29.2903 37.8127 29.817 37.8835C28.6476 37.3284 27.2561 36.9746 25.6635 36.8362C22.9677 36.6017 20.6496 37.0565 20.5523 37.076C20.0924 37.168 19.7944 37.6151 19.886 38.075C19.9777 38.5349 20.4248 38.8335 20.8849 38.7423Z" fill="#0164FE"/>
<path d="M36.8217 37.7762C38.4935 37.7762 40.1354 38.0855 41.5567 38.4835C43.0234 38.5336 44.0854 38.7364 44.1151 38.7423C44.5753 38.8343 45.0223 38.5356 45.1143 38.0756C45.2062 37.6155 44.9079 37.168 44.4477 37.0759C44.3503 37.0564 42.0321 36.6014 39.3365 36.8361C37.7439 36.9746 36.3526 37.3283 35.1831 37.8834C35.7098 37.8125 36.2562 37.7762 36.8217 37.7762Z" fill="#0164FE"/>
<path d="M42.2421 21.7667H42.9784V22.503C42.9784 22.9722 43.3588 23.3526 43.828 23.3526C44.2972 23.3526 44.6776 22.9722 44.6776 22.503V21.7667H45.4139C45.8831 21.7667 46.2635 21.3863 46.2635 20.9171C46.2635 20.4479 45.8831 20.0675 45.4139 20.0675H44.6776V19.3312C44.6776 18.862 44.2972 18.4816 43.828 18.4816C43.3588 18.4816 42.9784 18.862 42.9784 19.3312V20.0675H42.2421C41.7729 20.0675 41.3925 20.4479 41.3925 20.9171C41.3925 21.3863 41.7729 21.7667 42.2421 21.7667Z" fill="#0164FE"/>
<path d="M37.0316 34.6807C37.1405 34.6807 37.2512 34.6597 37.358 34.6151L42.7955 32.3495C43.2285 32.1691 43.4334 31.6717 43.2529 31.2385C43.0724 30.8055 42.575 30.6004 42.1419 30.7811L36.7045 33.0467C36.2714 33.2272 36.0665 33.7246 36.2471 34.1577C36.3829 34.484 36.6988 34.6807 37.0316 34.6807Z" fill="#0164FE"/>
<path d="M34.1157 33.7513C34.1819 33.767 34.248 33.7746 34.3132 33.7746C34.6975 33.7746 35.046 33.5119 35.1389 33.1216L37.4045 23.6061C37.5132 23.1496 37.2313 22.6915 36.7749 22.5829C36.3181 22.4742 35.8603 22.7561 35.7516 23.2125L33.486 32.728C33.3773 33.1845 33.6592 33.6426 34.1157 33.7513Z" fill="#0164FE"/>
<path d="M29.8464 33.0449C29.907 33.4687 30.2704 33.7745 30.6865 33.7745C30.7265 33.7745 30.767 33.7716 30.8077 33.7659C31.2722 33.6995 31.5949 33.2691 31.5286 32.8046L30.6224 26.461C30.556 25.9965 30.1251 25.6735 29.6612 25.74C29.1967 25.8064 28.8739 26.2367 28.9402 26.7012L29.8464 33.0449Z" fill="#0164FE"/>
<path d="M21.0244 27.7928C20.6926 28.1245 20.6926 28.6625 21.0244 28.9943L26.4618 34.4317C26.6277 34.5976 26.8452 34.6806 27.0626 34.6806C27.2799 34.6806 27.4974 34.5976 27.6633 34.4317C27.9951 34.0999 27.9951 33.562 27.6633 33.2302L22.2259 27.7928C21.8942 27.461 21.3562 27.461 21.0244 27.7928Z" fill="#0164FE"/>
<path d="M40.2031 27.4305C40.6723 27.4305 41.0527 27.0502 41.0527 26.5809C41.0527 26.1117 40.6723 25.7313 40.2031 25.7313C39.7338 25.7313 39.3535 26.1117 39.3535 26.5809C39.3535 27.0502 39.7338 27.4305 40.2031 27.4305Z" fill="#0164FE"/>
<path d="M32.5001 22.4463C32.9693 22.4463 33.3497 22.0659 33.3497 21.5967C33.3497 21.1275 32.9693 20.7471 32.5001 20.7471C32.0308 20.7471 31.6505 21.1275 31.6505 21.5967C31.6505 22.0659 32.0308 22.4463 32.5001 22.4463Z" fill="#0164FE"/>
<path d="M19.3596 34.2275C19.8288 34.2275 20.2092 33.8472 20.2092 33.3779C20.2092 32.9087 19.8288 32.5283 19.3596 32.5283C18.8904 32.5283 18.51 32.9087 18.51 33.3779C18.51 33.8472 18.8904 34.2275 19.3596 34.2275Z" fill="#0164FE"/>
<path d="M20.7189 23.3526C22.1891 23.3526 23.381 22.1607 23.381 20.6905C23.381 19.2203 22.1891 18.0284 20.7189 18.0284C19.2487 18.0284 18.0569 19.2203 18.0569 20.6905C18.0569 22.1607 19.2487 23.3526 20.7189 23.3526Z" fill="#0164FE"/>
</g>
<defs>
<clipPath id="clip0">
<rect width="29.0909" height="29.0909" fill="white" transform="translate(17.4546 17.4546)"/>
</clipPath>
</defs>
</svg>
