<svg width="80" height="80" viewBox="0 0 80 80" fill="none" xmlns="http://www.w3.org/2000/svg">
<path d="M17.5 70H50L62.5 57.5V10C62.5 7.23875 60.2612 5 57.5 5H17.5C14.7387 5 12.5 7.23875 12.5 10V65C12.5 67.7612 14.7387 70 17.5 70Z" fill="#FAB400"/>
<path d="M56.25 40H18.75C18.06 40 17.5 39.44 17.5 38.75C17.5 38.06 18.06 37.5 18.75 37.5H56.25C56.94 37.5 57.5 38.06 57.5 38.75C57.5 39.44 56.94 40 56.25 40Z" fill="#DC9600"/>
<path d="M56.25 45H18.75C18.06 45 17.5 44.44 17.5 43.75C17.5 43.06 18.06 42.5 18.75 42.5H56.25C56.94 42.5 57.5 43.06 57.5 43.75C57.5 44.44 56.94 45 56.25 45Z" fill="#DC9600"/>
<path d="M56.25 50H18.75C18.06 50 17.5 49.44 17.5 48.75C17.5 48.06 18.06 47.5 18.75 47.5H56.25C56.94 47.5 57.5 48.06 57.5 48.75C57.5 49.44 56.94 50 56.25 50Z" fill="#DC9600"/>
<path d="M56.25 55H18.75C18.06 55 17.5 54.44 17.5 53.75C17.5 53.06 18.06 52.5 18.75 52.5H56.25C56.94 52.5 57.5 53.06 57.5 53.75C57.5 54.44 56.94 55 56.25 55Z" fill="#DC9600"/>
<path d="M22.5 20H17.5C16.81 20 16.25 20.56 16.25 21.25C16.25 21.94 16.81 22.5 17.5 22.5H22.5C23.1887 22.5 23.75 23.0612 23.75 23.75V25H20C17.9325 25 16.25 26.6825 16.25 28.75C16.25 30.8175 17.9325 32.5 20 32.5H25C25.69 32.5 26.25 31.94 26.25 31.25V23.75C26.25 21.6825 24.5675 20 22.5 20ZM23.75 30H20C19.3112 30 18.75 29.4388 18.75 28.75C18.75 28.0612 19.3112 27.5 20 27.5H23.75V30Z" fill="#DC9600"/>
<path d="M37.5 25H36.25V23.75C36.25 23.06 35.69 22.5 35 22.5C34.31 22.5 33.75 23.06 33.75 23.75V25H32.5C31.81 25 31.25 25.56 31.25 26.25C31.25 26.94 31.81 27.5 32.5 27.5H33.75V28.75C33.75 29.44 34.31 30 35 30C35.69 30 36.25 29.44 36.25 28.75V27.5H37.5C38.19 27.5 38.75 26.94 38.75 26.25C38.75 25.56 38.19 25 37.5 25Z" fill="#DC9600"/>
<path d="M45 20H43.75V16.25C43.75 15.56 43.1912 15 42.5 15C41.8088 15 41.25 15.56 41.25 16.25V31.25C41.25 31.94 41.8088 32.5 42.5 32.5H45C48.4462 32.5 51.25 29.6962 51.25 26.25C51.25 22.8038 48.4462 20 45 20ZM45 30H43.75V22.5H45C47.0675 22.5 48.75 24.1825 48.75 26.25C48.75 28.3175 47.0675 30 45 30Z" fill="#DC9600"/>
<path d="M33.75 20C33.75 19.31 33.19 18.75 32.5 18.75H28.785C28.87 18.3962 29.105 18.095 29.4412 17.9275L32.3688 16.4637C33.22 16.0375 33.75 15.1813 33.75 14.2275V13.75C33.75 12.3712 32.6287 11.25 31.25 11.25H27.5C26.81 11.25 26.25 11.81 26.25 12.5C26.25 13.19 26.81 13.75 27.5 13.75H31.25V14.2275L28.3225 15.6913C27.0438 16.33 26.25 17.6163 26.25 19.045V20C26.25 20.69 26.81 21.25 27.5 21.25H32.5C33.19 21.25 33.75 20.69 33.75 20Z" fill="#DC9600"/>
<path d="M54.4413 17.9275L57.3688 16.4637C58.22 16.0375 58.75 15.1813 58.75 14.2275V13.75C58.75 12.3712 57.6287 11.25 56.25 11.25H52.5C51.8088 11.25 51.25 11.81 51.25 12.5C51.25 13.19 51.8088 13.75 52.5 13.75H56.25V14.2275L53.3225 15.6913C52.045 16.33 51.25 17.615 51.25 19.045V20C51.25 20.69 51.8088 21.25 52.5 21.25H57.5C58.1912 21.25 58.75 20.69 58.75 20C58.75 19.31 58.1912 18.75 57.5 18.75H53.7838C53.87 18.3962 54.105 18.095 54.4413 17.9275Z" fill="#DC9600"/>
<path d="M62.5 57.5H55C52.2387 57.5 50 59.7387 50 62.5V70L62.5 57.5Z" fill="#DC9600"/>
<path d="M65 25H75V65H65V25Z" fill="#C80A50"/>
<path d="M75 65H65L67.5 70H72.5L75 65Z" fill="#F0C8A0"/>
<path d="M67.5 70L68.8825 72.7637C69.3437 73.685 70.6575 73.685 71.1188 72.7637L72.5 70H67.5Z" fill="#0A5078"/>
<path d="M65 22.5H75V25H65V22.5Z" fill="#F0F0F0"/>
<path d="M72.5 15H67.5C66.1187 15 65 16.1187 65 17.5V22.5H75V17.5C75 16.1187 73.8813 15 72.5 15Z" fill="#0A5078"/>
<path d="M36.25 30H12.5V65C12.5 67.7612 14.7387 70 17.5 70H38.75V32.5C38.75 31.1187 37.6313 30 36.25 30Z" fill="#DC9600"/>
<path d="M35 30H7.5C6.11875 30 5 31.1187 5 32.5V72.5C5 73.8812 6.11875 75 7.5 75H35C36.3813 75 37.5 73.8812 37.5 72.5V32.5C37.5 31.1187 36.3813 30 35 30Z" fill="#00A0C8"/>
<path d="M33.75 32.5H8.75C8.06 32.5 7.5 33.06 7.5 33.75V41.25C7.5 41.94 8.06 42.5 8.75 42.5H33.75C34.44 42.5 35 41.94 35 41.25V33.75C35 33.06 34.44 32.5 33.75 32.5Z" fill="#0A5078"/>
<path d="M33.75 32.5H8.75C8.06 32.5 7.5 33.06 7.5 33.75V35C7.5 34.31 8.06 33.75 8.75 33.75H33.75C34.44 33.75 35 34.31 35 35V33.75C35 33.06 34.44 32.5 33.75 32.5Z" fill="#00325A"/>
<path d="M11.25 46.25H8.75C8.06 46.25 7.5 46.81 7.5 47.5V50C7.5 50.69 8.06 51.25 8.75 51.25H11.25C11.94 51.25 12.5 50.69 12.5 50V47.5C12.5 46.81 11.94 46.25 11.25 46.25Z" fill="#0082AA"/>
<path d="M18.75 46.25H16.25C15.56 46.25 15 46.81 15 47.5V50C15 50.69 15.56 51.25 16.25 51.25H18.75C19.44 51.25 20 50.69 20 50V47.5C20 46.81 19.44 46.25 18.75 46.25Z" fill="#0082AA"/>
<path d="M26.25 46.25H23.75C23.06 46.25 22.5 46.81 22.5 47.5V50C22.5 50.69 23.06 51.25 23.75 51.25H26.25C26.94 51.25 27.5 50.69 27.5 50V47.5C27.5 46.81 26.94 46.25 26.25 46.25Z" fill="#0082AA"/>
<path d="M33.75 46.25H31.25C30.56 46.25 30 46.81 30 47.5V50C30 50.69 30.56 51.25 31.25 51.25H33.75C34.44 51.25 35 50.69 35 50V47.5C35 46.81 34.44 46.25 33.75 46.25Z" fill="#0082AA"/>
<path d="M11.25 53.75H8.75C8.06 53.75 7.5 54.31 7.5 55V57.5C7.5 58.19 8.06 58.75 8.75 58.75H11.25C11.94 58.75 12.5 58.19 12.5 57.5V55C12.5 54.31 11.94 53.75 11.25 53.75Z" fill="#0082AA"/>
<path d="M18.75 53.75H16.25C15.56 53.75 15 54.31 15 55V57.5C15 58.19 15.56 58.75 16.25 58.75H18.75C19.44 58.75 20 58.19 20 57.5V55C20 54.31 19.44 53.75 18.75 53.75Z" fill="#0082AA"/>
<path d="M26.25 53.75H23.75C23.06 53.75 22.5 54.31 22.5 55V57.5C22.5 58.19 23.06 58.75 23.75 58.75H26.25C26.94 58.75 27.5 58.19 27.5 57.5V55C27.5 54.31 26.94 53.75 26.25 53.75Z" fill="#0082AA"/>
<path d="M33.75 53.75H31.25C30.56 53.75 30 54.31 30 55V57.5C30 58.19 30.56 58.75 31.25 58.75H33.75C34.44 58.75 35 58.19 35 57.5V55C35 54.31 34.44 53.75 33.75 53.75Z" fill="#0082AA"/>
<path d="M11.25 61.25H8.75C8.06 61.25 7.5 61.81 7.5 62.5V65C7.5 65.69 8.06 66.25 8.75 66.25H11.25C11.94 66.25 12.5 65.69 12.5 65V62.5C12.5 61.81 11.94 61.25 11.25 61.25Z" fill="#0082AA"/>
<path d="M18.75 61.25H16.25C15.56 61.25 15 61.81 15 62.5V65C15 65.69 15.56 66.25 16.25 66.25H18.75C19.44 66.25 20 65.69 20 65V62.5C20 61.81 19.44 61.25 18.75 61.25Z" fill="#0082AA"/>
<path d="M26.25 61.25H23.75C23.06 61.25 22.5 61.81 22.5 62.5V65C22.5 65.69 23.06 66.25 23.75 66.25H26.25C26.94 66.25 27.5 65.69 27.5 65V62.5C27.5 61.81 26.94 61.25 26.25 61.25Z" fill="#0082AA"/>
<path d="M33.75 61.25H31.25C30.56 61.25 30 61.81 30 62.5V72.5C30 73.19 30.56 73.75 31.25 73.75H33.75C34.44 73.75 35 73.19 35 72.5V62.5C35 61.81 34.44 61.25 33.75 61.25Z" fill="#0082AA"/>
<path d="M11.25 68.75H8.75C8.06 68.75 7.5 69.31 7.5 70V72.5C7.5 73.19 8.06 73.75 8.75 73.75H11.25C11.94 73.75 12.5 73.19 12.5 72.5V70C12.5 69.31 11.94 68.75 11.25 68.75Z" fill="#0082AA"/>
<path d="M18.75 68.75H16.25C15.56 68.75 15 69.31 15 70V72.5C15 73.19 15.56 73.75 16.25 73.75H18.75C19.44 73.75 20 73.19 20 72.5V70C20 69.31 19.44 68.75 18.75 68.75Z" fill="#0082AA"/>
<path d="M26.25 68.75H23.75C23.06 68.75 22.5 69.31 22.5 70V72.5C22.5 73.19 23.06 73.75 23.75 73.75H26.25C26.94 73.75 27.5 73.19 27.5 72.5V70C27.5 69.31 26.94 68.75 26.25 68.75Z" fill="#0082AA"/>
<path d="M11.25 45H8.75C8.06 45 7.5 45.56 7.5 46.25V48.75C7.5 49.44 8.06 50 8.75 50H11.25C11.94 50 12.5 49.44 12.5 48.75V46.25C12.5 45.56 11.94 45 11.25 45Z" fill="#FAB400"/>
<path d="M18.75 45H16.25C15.56 45 15 45.56 15 46.25V48.75C15 49.44 15.56 50 16.25 50H18.75C19.44 50 20 49.44 20 48.75V46.25C20 45.56 19.44 45 18.75 45Z" fill="#FAB400"/>
<path d="M26.25 45H23.75C23.06 45 22.5 45.56 22.5 46.25V48.75C22.5 49.44 23.06 50 23.75 50H26.25C26.94 50 27.5 49.44 27.5 48.75V46.25C27.5 45.56 26.94 45 26.25 45Z" fill="#FAB400"/>
<path d="M33.75 45H31.25C30.56 45 30 45.56 30 46.25V48.75C30 49.44 30.56 50 31.25 50H33.75C34.44 50 35 49.44 35 48.75V46.25C35 45.56 34.44 45 33.75 45Z" fill="#FAB400"/>
<path d="M11.25 52.5H8.75C8.06 52.5 7.5 53.06 7.5 53.75V56.25C7.5 56.94 8.06 57.5 8.75 57.5H11.25C11.94 57.5 12.5 56.94 12.5 56.25V53.75C12.5 53.06 11.94 52.5 11.25 52.5Z" fill="#F0F0F0"/>
<path d="M18.75 52.5H16.25C15.56 52.5 15 53.06 15 53.75V56.25C15 56.94 15.56 57.5 16.25 57.5H18.75C19.44 57.5 20 56.94 20 56.25V53.75C20 53.06 19.44 52.5 18.75 52.5Z" fill="#F0F0F0"/>
<path d="M26.25 52.5H23.75C23.06 52.5 22.5 53.06 22.5 53.75V56.25C22.5 56.94 23.06 57.5 23.75 57.5H26.25C26.94 57.5 27.5 56.94 27.5 56.25V53.75C27.5 53.06 26.94 52.5 26.25 52.5Z" fill="#F0F0F0"/>
<path d="M33.75 52.5H31.25C30.56 52.5 30 53.06 30 53.75V56.25C30 56.94 30.56 57.5 31.25 57.5H33.75C34.44 57.5 35 56.94 35 56.25V53.75C35 53.06 34.44 52.5 33.75 52.5Z" fill="#F0F0F0"/>
<path d="M11.25 60H8.75C8.06 60 7.5 60.56 7.5 61.25V63.75C7.5 64.44 8.06 65 8.75 65H11.25C11.94 65 12.5 64.44 12.5 63.75V61.25C12.5 60.56 11.94 60 11.25 60Z" fill="#F0F0F0"/>
<path d="M18.75 60H16.25C15.56 60 15 60.56 15 61.25V63.75C15 64.44 15.56 65 16.25 65H18.75C19.44 65 20 64.44 20 63.75V61.25C20 60.56 19.44 60 18.75 60Z" fill="#F0F0F0"/>
<path d="M26.25 60H23.75C23.06 60 22.5 60.56 22.5 61.25V63.75C22.5 64.44 23.06 65 23.75 65H26.25C26.94 65 27.5 64.44 27.5 63.75V61.25C27.5 60.56 26.94 60 26.25 60Z" fill="#F0F0F0"/>
<path d="M33.75 60H31.25C30.56 60 30 60.56 30 61.25V71.25C30 71.94 30.56 72.5 31.25 72.5H33.75C34.44 72.5 35 71.94 35 71.25V61.25C35 60.56 34.44 60 33.75 60Z" fill="#C80A50"/>
<path d="M11.25 67.5H8.75C8.06 67.5 7.5 68.06 7.5 68.75V71.25C7.5 71.94 8.06 72.5 8.75 72.5H11.25C11.94 72.5 12.5 71.94 12.5 71.25V68.75C12.5 68.06 11.94 67.5 11.25 67.5Z" fill="#F0F0F0"/>
<path d="M18.75 67.5H16.25C15.56 67.5 15 68.06 15 68.75V71.25C15 71.94 15.56 72.5 16.25 72.5H18.75C19.44 72.5 20 71.94 20 71.25V68.75C20 68.06 19.44 67.5 18.75 67.5Z" fill="#F0F0F0"/>
<path d="M26.25 67.5H23.75C23.06 67.5 22.5 68.06 22.5 68.75V71.25C22.5 71.94 23.06 72.5 23.75 72.5H26.25C26.94 72.5 27.5 71.94 27.5 71.25V68.75C27.5 68.06 26.94 67.5 26.25 67.5Z" fill="#F0F0F0"/>
</svg>
